<svg xmlns="http://www.w3.org/2000/svg" viewBox="0 0 400 100" width="400" height="100">
  <defs>
    <linearGradient id="grad-pink" x1="0%" y1="100%" x2="100%" y2="0%">
      <stop offset="0%" stop-color="#FF4081"/>
      <stop offset="100%" stop-color="#FF80AB"/>
    </linearGradient>
    <linearGradient id="grad-teal" x1="0%" y1="0%" x2="100%" y2="100%">
      <stop offset="0%" stop-color="#00BCD4"/>
      <stop offset="100%" stop-color="#4DD0E1"/>
    </linearGradient>
    <linearGradient id="grad-blue" x1="0%" y1="0%" x2="0%" y2="100%">
      <stop offset="0%" stop-color="#0D47A1"/>
      <stop offset="100%" stop-color="#1565C0"/>
    </linearGradient>
  </defs>
  <g transform="translate(10, 10)">
    <rect x="8" y="15" width="50" height="50" rx="4" fill="none" stroke="#0D47A1" stroke-width="1.5" opacity="0.3" transform="rotate(-10, 33, 40)"/>
    <rect x="12" y="18" width="44" height="44" rx="3" fill="none" stroke="#0D47A1" stroke-width="1" opacity="0.2" transform="rotate(-10, 34, 40)"/>
    <line x1="8" y1="30" x2="58" y2="25" stroke="#0D47A1" stroke-width="0.8" opacity="0.15"/>
    <line x1="8" y1="45" x2="58" y2="40" stroke="#0D47A1" stroke-width="0.8" opacity="0.15"/>
    <line x1="8" y1="55" x2="58" y2="50" stroke="#0D47A1" stroke-width="0.8" opacity="0.15"/>
    <line x1="20" y1="15" x2="18" y2="65" stroke="#0D47A1" stroke-width="0.8" opacity="0.15"/>
    <line x1="35" y1="13" x2="33" y2="63" stroke="#0D47A1" stroke-width="0.8" opacity="0.15"/>
    <line x1="48" y1="11" x2="46" y2="61" stroke="#0D47A1" stroke-width="0.8" opacity="0.15"/>
    <path d="M 15 65 Q 10 40, 20 20 Q 22 15, 28 25 Q 35 40, 25 65" fill="url(#grad-teal)" opacity="0.9"/>
    <path d="M 22 62 Q 18 38, 30 18 Q 33 12, 38 22 Q 45 38, 33 62" fill="url(#grad-teal)" opacity="0.7"/>
    <path d="M 30 60 Q 28 35, 40 15 Q 43 10, 47 18 Q 52 32, 42 58" fill="url(#grad-pink)" opacity="0.85"/>
    <path d="M 38 58 Q 36 35, 48 18 Q 50 14, 53 20 L 58 12 L 55 8" fill="none" stroke="#FF4081" stroke-width="2.5" stroke-linecap="round"/>
    <path d="M 20 68 Q 14 42, 24 16 L 28 8 L 24 5" fill="none" stroke="#00BCD4" stroke-width="2.5" stroke-linecap="round"/>
  </g>
  <g transform="translate(85, 28)">
    <text font-family="Poppins, Arial, sans-serif" font-weight="700" font-size="36" fill="#0D47A1" letter-spacing="3">GRAPHCODE</text>
    <text font-family="Open Sans, Arial, sans-serif" font-weight="400" font-size="10" fill="#0D47A1" y="18" letter-spacing="6" opacity="0.7">ENGINEERING · ART · STRATEGY</text>
  </g>
</svg>
